<svg xmlns="http://www.w3.org/2000/svg" xmlns:xlink="http://www.w3.org/1999/xlink" viewBox="0,0,256,256" width="100px" height="100px" fill-rule="nonzero"><g fill-opacity="0" fill="#dddddd" fill-rule="nonzero" stroke="none" stroke-width="1" stroke-linecap="butt" stroke-linejoin="miter" stroke-miterlimit="10" stroke-dasharray="" stroke-dashoffset="0" font-family="none" font-weight="none" font-size="none" text-anchor="none" style="mix-blend-mode: normal"><path d="M0,256v-256h256v256z" id="bgRectangle"></path></g><g fill="none" fill-rule="nonzero" stroke="none" stroke-width="1" stroke-linecap="butt" stroke-linejoin="miter" stroke-miterlimit="10" stroke-dasharray="" stroke-dashoffset="0" font-family="none" font-weight="none" font-size="none" text-anchor="none" style="mix-blend-mode: normal"><g transform="scale(2.56,2.56)"><path d="M85,70v-40l-36,-20.992l-34,20.992v40l34,20.992z" fill="#ffffff"></path><path d="M85,70.617v-41.266l-36.011,20.649z" fill="#fcfcfc"></path><path d="M14.521,69.66l35.479,-20.236l35.181,20.044l-36.181,21.524z" fill="#fffdff"></path><path d="M79,50h-2.58l0.25,-3h2.33c0.552,0 1,-0.447 1,-1c0,-0.553 -0.448,-1 -1,-1h-2.163l0.16,-1.917c0.046,-0.551 -0.363,-1.033 -0.914,-1.079c-0.547,-0.054 -1.034,0.362 -1.08,0.913l-0.173,2.083h-2.993l0.16,-1.917c0.046,-0.551 -0.363,-1.033 -0.914,-1.079c-0.549,-0.054 -1.034,0.362 -1.08,0.913l-0.173,2.083h-1.83c-0.552,0 -1,0.447 -1,1c0,0.553 0.448,1 1,1h1.663l-0.25,3h-1.413c-0.552,0 -1,0.447 -1,1c0,0.553 0.448,1 1,1h1.247l-0.243,2.917c-0.046,0.551 0.363,1.033 0.914,1.079c0.027,0.003 0.055,0.004 0.083,0.004c0.515,0 0.952,-0.395 0.996,-0.917l0.256,-3.083h2.993l-0.243,2.917c-0.046,0.551 0.363,1.033 0.914,1.079c0.028,0.003 0.056,0.004 0.084,0.004c0.515,0 0.952,-0.395 0.996,-0.917l0.256,-3.083h2.747c0.552,0 1,-0.447 1,-1c0,-0.553 -0.448,-1 -1,-1zM71.42,50l0.25,-3h2.993l-0.25,3z" fill="#f2f2f2"></path><path d="M50,73c-6.144,0 -11.919,-2.393 -16.264,-6.737c-4.343,-4.344 -6.736,-10.119 -6.736,-16.263c0,-6.144 2.393,-11.919 6.737,-16.264c4.344,-4.343 10.119,-6.736 16.263,-6.736c6.144,0 11.919,2.393 16.264,6.737c1.359,1.358 2.543,2.881 3.52,4.522l-10.315,6.133c-0.467,-0.786 -1.036,-1.516 -1.69,-2.171c-2.079,-2.076 -4.841,-3.221 -7.779,-3.221c-2.938,0 -5.7,1.145 -7.778,3.222c-2.078,2.078 -3.222,4.84 -3.222,7.778c0,2.938 1.144,5.7 3.222,7.777c2.078,2.078 4.84,3.223 7.778,3.223c2.938,0 5.7,-1.145 7.778,-3.222c0.655,-0.655 1.224,-1.385 1.69,-2.171l10.315,6.133c-0.976,1.642 -2.161,3.164 -3.52,4.522c-4.344,4.345 -10.119,6.738 -16.263,6.738z" fill="#f2f2f2"></path><path d="M48.985,7.842l-34.985,21.6v41.115l34.985,21.601l37.015,-21.584v-41.148zM16.473,69.735l4.473,-2.556c0.24,-0.138 0.323,-0.442 0.187,-0.683c-0.137,-0.239 -0.442,-0.321 -0.683,-0.187l-4.45,2.543v-38.294l33.015,-20.384l34.484,20.108l-5.108,2.918c-0.24,0.138 -0.323,0.443 -0.186,0.683c0.092,0.161 0.261,0.252 0.435,0.252c0.084,0 0.169,-0.021 0.248,-0.065l5.112,-2.922v37.705l-5.549,-3.171c-0.24,-0.134 -0.545,-0.052 -0.683,0.187c-0.137,0.24 -0.054,0.545 0.187,0.683l5.543,3.167l-34.483,20.107z" fill="#000000"></path><path d="M70.039,61.311l-10.315,-6.133c-0.114,-0.069 -0.251,-0.089 -0.379,-0.055c-0.128,0.032 -0.239,0.115 -0.307,0.229c-0.444,0.747 -0.987,1.445 -1.614,2.072c-1.984,1.984 -4.62,3.076 -7.424,3.076c-2.804,0 -5.441,-1.093 -7.425,-3.076c-1.983,-1.983 -3.075,-4.619 -3.075,-7.424c0,-2.805 1.092,-5.441 3.076,-7.425c1.984,-1.983 4.62,-3.075 7.424,-3.075c2.804,0 5.44,1.092 7.424,3.075c0.627,0.628 1.17,1.325 1.614,2.072c0.068,0.114 0.178,0.197 0.307,0.229c0.128,0.033 0.265,0.014 0.379,-0.055l10.315,-6.133c0.114,-0.067 0.196,-0.178 0.229,-0.307c0.033,-0.128 0.013,-0.265 -0.055,-0.379c-0.999,-1.679 -2.208,-3.233 -3.596,-4.62c-4.438,-4.438 -10.34,-6.882 -16.617,-6.882c-6.277,0 -12.178,2.444 -16.617,6.883c-4.439,4.439 -6.883,10.341 -6.883,16.617c0,6.276 2.444,12.178 6.883,16.616c4.438,4.44 10.34,6.884 16.617,6.884c6.277,0 12.179,-2.444 16.617,-6.884c1.387,-1.387 2.597,-2.941 3.596,-4.62c0.068,-0.114 0.088,-0.251 0.055,-0.379c-0.033,-0.129 -0.115,-0.239 -0.229,-0.306zM65.91,65.909c-4.25,4.25 -9.9,6.591 -15.91,6.591c-6.01,0 -11.66,-2.341 -15.91,-6.591c-4.25,-4.25 -6.59,-9.899 -6.59,-15.909c0,-6.01 2.34,-11.66 6.59,-15.91c4.25,-4.249 9.9,-6.59 15.91,-6.59c6.01,0 11.66,2.341 15.91,6.591c1.21,1.21 2.279,2.553 3.183,3.998l-9.459,5.624c-0.432,-0.659 -0.936,-1.278 -1.501,-1.845c-2.174,-2.172 -5.062,-3.368 -8.133,-3.368c-3.071,0 -5.959,1.196 -8.131,3.368c-2.173,2.173 -3.369,5.061 -3.369,8.132c0,3.071 1.196,5.959 3.368,8.131c2.173,2.173 5.061,3.369 8.132,3.369c3.071,0 5.959,-1.196 8.132,-3.368c0.565,-0.566 1.069,-1.186 1.501,-1.845l9.459,5.624c-0.903,1.445 -1.972,2.788 -3.182,3.998z" fill="#000000"></path><path d="M80.5,51c0,-0.827 -0.673,-1.5 -1.5,-1.5h-2.037l0.167,-2h1.87c0.827,0 1.5,-0.673 1.5,-1.5c0,-0.827 -0.673,-1.5 -1.5,-1.5h-1.62l0.115,-1.375c0.068,-0.824 -0.546,-1.551 -1.363,-1.619c-0.395,-0.035 -0.782,0.082 -1.09,0.338c-0.312,0.261 -0.503,0.627 -0.537,1.032l-0.135,1.624h-1.99l0.115,-1.375c0.068,-0.824 -0.546,-1.551 -1.363,-1.619c-0.396,-0.028 -0.784,0.082 -1.091,0.339c-0.312,0.26 -0.502,0.626 -0.536,1.031l-0.135,1.624h-1.37c-0.827,0 -1.5,0.673 -1.5,1.5c0,0.827 0.673,1.5 1.5,1.5h1.12l-0.167,2h-0.953c-0.827,0 -1.5,0.673 -1.5,1.5c0,0.827 0.673,1.5 1.5,1.5h0.703l-0.198,2.375c-0.068,0.824 0.546,1.551 1.36,1.618c0.018,0.002 0.119,0.007 0.136,0.007c0.773,0 1.43,-0.604 1.494,-1.375l0.218,-2.625h1.99l-0.198,2.375c-0.068,0.824 0.546,1.551 1.36,1.618c0.018,0.002 0.119,0.007 0.136,0.007c0.773,0 1.43,-0.604 1.494,-1.375l0.218,-2.625h2.287c0.827,0 1.5,-0.673 1.5,-1.5zM76.253,51.5c-0.26,0 -0.477,0.199 -0.499,0.458l-0.257,3.084c-0.021,0.255 -0.237,0.456 -0.535,0.456c-0.001,0 -0.003,0 -0.005,0c-0.275,-0.023 -0.48,-0.265 -0.457,-0.539l0.243,-2.917c0.012,-0.14 -0.036,-0.277 -0.131,-0.381c-0.095,-0.103 -0.228,-0.161 -0.368,-0.161h-2.993c-0.26,0 -0.477,0.199 -0.499,0.458l-0.257,3.084c-0.021,0.255 -0.237,0.456 -0.535,0.456c-0.001,0 -0.003,0 -0.005,0c-0.275,-0.023 -0.48,-0.265 -0.457,-0.539l0.243,-2.917c0.012,-0.14 -0.036,-0.277 -0.131,-0.381c-0.095,-0.103 -0.228,-0.161 -0.368,-0.161h-1.242c-0.275,0 -0.5,-0.225 -0.5,-0.5c0,-0.275 0.225,-0.5 0.5,-0.5h1.413c0.26,0 0.477,-0.199 0.498,-0.458l0.25,-3c0.012,-0.14 -0.035,-0.277 -0.13,-0.381c-0.095,-0.103 -0.229,-0.161 -0.368,-0.161h-1.663c-0.275,0 -0.5,-0.225 -0.5,-0.5c0,-0.275 0.225,-0.5 0.5,-0.5h1.83c0.26,0 0.477,-0.199 0.498,-0.459l0.174,-2.083c0.011,-0.136 0.075,-0.259 0.18,-0.346c0.1,-0.084 0.224,-0.119 0.36,-0.11c0.275,0.023 0.48,0.265 0.457,0.54l-0.159,1.917c-0.012,0.139 0.035,0.276 0.13,0.38c0.095,0.103 0.229,0.161 0.368,0.161h2.993c0.26,0 0.477,-0.199 0.498,-0.459l0.174,-2.082c0.011,-0.136 0.075,-0.259 0.18,-0.347c0.101,-0.084 0.226,-0.122 0.359,-0.11c0.275,0.023 0.48,0.265 0.457,0.54l-0.159,1.917c-0.012,0.139 0.035,0.276 0.13,0.38c0.095,0.103 0.229,0.161 0.368,0.161h2.162c0.275,0 0.5,0.225 0.5,0.5c0,0.275 -0.225,0.5 -0.5,0.5h-2.33c-0.26,0 -0.477,0.199 -0.498,0.458l-0.25,3c-0.012,0.14 0.035,0.277 0.13,0.381c0.095,0.103 0.229,0.161 0.368,0.161h2.58c0.275,0 0.5,0.225 0.5,0.5c0,0.275 -0.225,0.5 -0.5,0.5z" fill="#000000"></path><path d="M74.663,46.5h-2.993c-0.26,0 -0.477,0.199 -0.498,0.458l-0.25,3c-0.012,0.14 0.035,0.277 0.13,0.381c0.095,0.103 0.229,0.161 0.368,0.161h2.993c0.26,0 0.477,-0.199 0.498,-0.458l0.25,-3c0.012,-0.14 -0.035,-0.277 -0.13,-0.381c-0.094,-0.102 -0.228,-0.161 -0.368,-0.161zM73.953,49.5h-1.99l0.167,-2h1.99z" fill="#000000"></path><path d="M73.042,37.333c0.084,0 0.169,-0.021 0.248,-0.065l3.252,-1.857c0.24,-0.138 0.323,-0.442 0.186,-0.683c-0.137,-0.238 -0.441,-0.32 -0.682,-0.187l-3.252,1.857c-0.24,0.138 -0.323,0.442 -0.186,0.683c0.092,0.161 0.26,0.252 0.434,0.252z" fill="#000000"></path><path d="M57.049,45.972c-0.137,-0.239 -0.441,-0.319 -0.682,-0.187l-13.7,7.829c-0.239,0.138 -0.323,0.443 -0.186,0.683c0.092,0.161 0.261,0.252 0.435,0.252c0.084,0 0.169,-0.021 0.247,-0.065l6.837,-3.908l6.837,3.907c0.078,0.044 0.163,0.065 0.247,0.065c0.174,0 0.343,-0.091 0.435,-0.252c0.137,-0.239 0.054,-0.545 -0.186,-0.683l-6.324,-3.613l5.854,-3.346c0.24,-0.137 0.323,-0.443 0.186,-0.682z" fill="#000000"></path><path d="M27.104,62.507l-4.2,2.4c-0.239,0.138 -0.323,0.443 -0.186,0.683c0.092,0.161 0.261,0.252 0.435,0.252c0.084,0 0.169,-0.021 0.247,-0.065l4.2,-2.4c0.24,-0.138 0.323,-0.443 0.186,-0.683c-0.136,-0.239 -0.441,-0.321 -0.682,-0.187z" fill="#000000"></path><path d="M76.146,64.364l-2.857,-1.632c-0.24,-0.134 -0.545,-0.052 -0.682,0.187c-0.137,0.24 -0.054,0.545 0.186,0.683l2.857,1.632c0.078,0.044 0.163,0.065 0.247,0.065c0.174,0 0.343,-0.091 0.435,-0.252c0.137,-0.24 0.054,-0.545 -0.186,-0.683z" fill="#000000"></path></g></g></svg>